<?xml version="1.0" standalone="no"?><!DOCTYPE svg PUBLIC "-//W3C//DTD SVG 1.1//EN" "http://www.w3.org/Graphics/SVG/1.1/DTD/svg11.dtd"><svg t="1741930343877" class="icon" viewBox="0 0 1024 1024" version="1.1" xmlns="http://www.w3.org/2000/svg" p-id="2631" xmlns:xlink="http://www.w3.org/1999/xlink" width="200" height="200"><path d="M20.48 20.48h983.04v983.04H20.48z" fill="#FFFFFF" p-id="2632"></path><path d="M194.56 130.6624c0-19.2512 15.5648-34.816 34.816-34.816h109.24032c19.2512 0 34.816 15.5648 34.816 34.816v51.2h277.13536V130.6624c0-19.2512 15.5648-34.816 34.816-34.816H794.624c19.2512 0 34.816 15.5648 34.816 34.816v163.84c0 19.2512-15.5648 34.816-34.816 34.816h-109.24032a34.816 34.816 0 0 1-34.816-34.816V243.3024H542.72v537.3952h107.84768v-51.2c0-19.16928 15.5648-34.816 34.816-34.816H794.624c19.2512 0 34.816 15.60576 34.816 34.816v163.88096c0 19.2512-15.5648 34.816-34.816 34.816h-109.24032a34.816 34.816 0 0 1-34.816-34.816v-51.2H373.43232v51.2c0 19.2512-15.5648 34.816-34.816 34.816H229.376a34.816 34.816 0 0 1-34.816-34.816v-163.84c0-19.2512 15.5648-34.816 34.816-34.816h109.24032c19.2512 0 34.816 15.5648 34.816 34.816v51.2h107.84768V243.26144H373.43232V294.5024c0 19.2512-15.5648 34.816-34.816 34.816H229.376a34.816 34.816 0 0 1-34.816-34.816v-163.84z m517.44768 680.7552v55.33696h55.99232v-110.592h-55.99232v55.296z m0-543.5392h55.99232v-110.592h-55.99232v110.592zM311.99232 809.86112V756.1216H256v110.592h55.99232V813.056a31.25248 31.25248 0 0 1 0-3.15392z m0-652.57472H256v110.592h55.99232V214.13888a31.1296 31.1296 0 0 1 0-3.15392V157.2864z" fill="#000000" p-id="2633"></path></svg>